<svg width="120" height="32" fill="none" xmlns="http://www.w3.org/2000/svg"><path d="M55.4479 13.2677h-3.5092c-.1-.5755-.2846-1.0852-.5535-1.5294-.269-.4503-.6037-.8319-1.004-1.1446-.4003-.3128-.8569-.5474-1.3699-.7037-.5066-.1627-1.0539-.244-1.6419-.244-1.0446 0-1.9704.2627-2.7773.7881-.8069.5192-1.4387 1.2823-1.8953 2.2894-.4566 1.0008-.6849 2.2237-.6849 3.6686 0 1.47.2283 2.7085.6849 3.7156.4629 1.0008 1.0947 1.7577 1.8953 2.2706.8069.5067 1.7295.76 2.7679.76.5755 0 1.1134-.0751 1.6138-.2252.5067-.1564.9602-.3847 1.3605-.6849.4066-.3003.7475-.6693 1.0227-1.1072.2815-.4378.4754-.9383.5817-1.5012l3.5092.0187c-.1314.9133-.416 1.7702-.8539 2.5709-.4316.8007-.9977 1.5075-1.6982 2.1205-.7006.6067-1.52 1.0821-2.4583 1.4262-.9383.3377-1.9797.5066-3.1244.5066-1.6889 0-3.1964-.3909-4.5225-1.1728-1.326-.7819-2.3707-1.911-3.1338-3.3872-.7631-1.4762-1.1447-3.2464-1.1447-5.3106 0-2.0704.3847-3.8406 1.1541-5.3105.7694-1.4763 1.8171-2.6053 3.1432-3.3872 1.3261-.7819 2.8273-1.1728 4.5037-1.1728 1.0696 0 2.0642.15 2.9837.4503.9195.3003 1.7389.7413 2.4582 1.323.7194.5755 1.3105 1.2823 1.7734 2.1205.4691.8319.7756 1.7827.9195 2.8523Zm7.1847 13.0232c-.9132 0-1.7358-.1627-2.4676-.4879-.7256-.3316-1.3011-.8195-1.7264-1.4637-.4191-.6443-.6287-1.4387-.6287-2.3832 0-.8132.1502-1.4856.4504-2.0173.3003-.5317.71-.957 1.2291-1.2761.5192-.319 1.1041-.5598 1.7546-.7224.6568-.1689 1.3355-.2909 2.036-.3659.8445-.0876 1.5294-.1658 2.0549-.2346.5254-.0751.9069-.1877 1.1446-.3378.244-.1564.366-.3972.366-.7224v-.0563c0-.7069-.2096-1.2542-.6287-1.642-.4191-.3878-1.0227-.5817-1.8108-.5817-.832 0-1.4919.1814-1.9798.5442-.4816.3628-.8069.7912-.9758 1.2854l-3.1713-.4504c.2502-.8757.663-1.6076 1.2385-2.1955.5755-.5943 1.2792-1.0384 2.1111-1.3324.8319-.3002 1.7514-.4503 2.7585-.4503.6943 0 1.3855.0813 2.0736.2439.688.1626 1.3167.4316 1.8859.8069.5692.3691 1.0258.8726 1.3699 1.5106.3502.6381.5254 1.4356.5254 2.3926V26h-3.2652v-1.9797h-.1126c-.2064.4003-.4973.7756-.8726 1.1259-.369.344-.835.6224-1.398.835-.5567.2065-1.2103.3097-1.961.3097Zm.882-2.4958c.6818 0 1.2729-.1345 1.7733-.4035.5004-.2752.8851-.638 1.1541-1.0884.2752-.4503.4128-.9414.4128-1.4731v-1.6982c-.1063.0876-.2877.1689-.5441.2439-.2503.0751-.5317.1408-.8445.1971a26.0015 26.0015 0 0 1-.9289.1501 212.595 212.595 0 0 1-.7975.1126c-.5067.0688-.9602.1814-1.3605.3378-.4003.1563-.7162.3753-.9476.6567-.2315.2753-.3472.6318-.3472 1.0697 0 .6255.2283 1.0977.6849 1.4168.4567.319 1.0384.4785 1.7452.4785Zm21.5332-8.3975-3.0962.3378c-.0876-.3128-.2409-.6068-.4598-.882-.2127-.2752-.5004-.4973-.8632-.6662s-.8069-.2533-1.3323-.2533c-.7069 0-1.3011.1532-1.7827.4597-.4754.3065-.71.7037-.7037 1.1916-.0063.4191.147.76.4597 1.0227.319.2628.8445.4786 1.5763.6474l2.4583.5255c1.3636.294 2.3769.76 3.0399 1.398.6693.638 1.0071 1.4731 1.0134 2.5052-.0063.907-.2721 1.7076-.7976 2.4019-.5191.6881-1.2416 1.226-2.1673 1.6139-.9258.3878-1.9892.5817-3.1902.5817-1.7639 0-3.1838-.3691-4.2597-1.1072-1.0759-.7443-1.717-1.7796-1.9234-3.1056l3.312-.3191c.1502.6506.4692 1.1416.9571 1.4731.4879.3315 1.1228.4973 1.9047.4973.8069 0 1.4543-.1658 1.9422-.4973.4941-.3315.7412-.7412.7412-1.2291 0-.4128-.1595-.7537-.4785-1.0227-.3128-.269-.8007-.4754-1.4637-.6193l-2.4583-.516c-1.3823-.2878-2.4051-.7725-3.0681-1.4543-.663-.6881-.9914-1.5576-.9852-2.6084-.0062-.8882.2346-1.6576.7225-2.3082.4941-.6567 1.1791-1.1634 2.0548-1.5199.882-.3628 1.8984-.5442 3.0494-.5442 1.6888 0 3.018.3596 3.9876 1.079.9758.7193 1.5794 1.692 1.8108 2.918Zm9.4906 10.8839c-1.4449 0-2.6928-.3003-3.7437-.9008-1.0446-.6067-1.8484-1.4637-2.4113-2.5708-.563-1.1134-.8445-2.4239-.8445-3.9313 0-1.4825.2815-2.7836.8445-3.9032.5692-1.126 1.3636-2.0017 2.3832-2.6272 1.0196-.6318 2.2174-.9476 3.5935-.9476.8883 0 1.7265.1438 2.5146.4316.7944.2814 1.495.7193 2.1017 1.3135.613.5943 1.0946 1.3511 1.4446 2.2706.351.9133.526 2.0017.526 3.2652v1.0415H89.134v-2.2894h8.557c-.0063-.6505-.147-1.2291-.4222-1.7358-.2752-.5129-.6599-.9163-1.1541-1.2103-.4879-.294-1.0571-.441-1.7076-.441-.6944 0-1.3042.1689-1.8297.5066-.5254.3316-.9351.7694-1.2291 1.3136-.2877.538-.4347 1.1291-.441 1.7733v1.9985c0 .8382.1533 1.5576.4598 2.1581.3065.5942.735 1.0508 1.2854 1.3698.5505.3128 1.1947.4692 1.9328.4692.4942 0 .9414-.0688 1.3418-.2065.4003-.1438.7474-.3534 1.0414-.6286.294-.2752.5161-.6161.6662-1.0227l3.1713.3565c-.2.8382-.582 1.5701-1.1446 2.1956-.5567.6192-1.2698 1.1009-2.1393 1.4449-.8695.3378-1.864.5067-2.9837.5067Zm14.6296-.0282c-1.132 0-2.145-.2908-3.04-.8726-.894-.5817-1.601-1.4261-2.12-2.5333-.519-1.1071-.779-2.452-.779-4.0345 0-1.6013.263-2.9524.788-4.0533.532-1.1072 1.248-1.9423 2.149-2.5052.901-.5692 1.905-.8538 3.012-.8538.844 0 1.538.1438 2.083.4316.544.2814.975.6223 1.294 1.0227.32.394.567.7662.742 1.1165h.14V6.7843h3.406V26h-3.34v-2.2706h-.206c-.175.3503-.429.7225-.76 1.1165-.332.3878-.77.7194-1.314.9946s-1.229.4128-2.055.4128Zm.948-2.7866c.719 0 1.332-.1939 1.839-.5817.507-.3941.891-.9414 1.154-1.642.263-.7006.394-1.5169.394-2.4489 0-.932-.131-1.742-.394-2.4301-.256-.6881-.638-1.2229-1.145-1.6044-.5-.3816-1.116-.5724-1.848-.5724-.757 0-1.389.1971-1.895.5911-.507.3941-.889.9383-1.145 1.6326s-.385 1.4887-.385 2.3832c0 .9007.129 1.7045.385 2.4114.263.7005.647 1.2541 1.154 1.6607.513.4003 1.142.6005 1.886.6005Z" fill="#000"></path><path fill-rule="evenodd" clip-rule="evenodd" d="M2.4409 9.3654v13.0732l8.6309 4.9863 2.6642 1.5503 2.4569 1.4064-2.4569 1.4224-6.876-3.9795L0 23.845V7.943l6.3974-3.7078.4626-.2717 1.9942-1.1347 2.4409 1.4064 2.4409 1.4224 3.7491 2.1575 5.1052 2.9567-.2074-.1279h2.6642V9.3654L19.926 6.4087l-6.19-3.5799-2.4409-1.4224L13.736 0l6.876 3.9635 1.7709 1.0229L27.488 7.943v5.1622H21.7288l-1.5794-.911-5.1052-2.9567-.5583-.3196-.7499-.4315-2.4409-1.4224-2.4409-1.4064L2.441 9.3654Zm22.6062 11.7787h-2.6642l.2074-.1279-3.9565 2.2854-2.4409-1.4064-5.1211-2.9566v-2.8288l7.562 4.363 1.5156-.863 1.5794-.927h5.7592v5.1622l-6.3974 3.7078-.4786.2717-1.9782 1.1507-2.4409-1.4064v-.016l-2.4569-1.4064-2.6642-1.5502-6.19-3.58V10.7718l3.9724-2.2854 2.4409 1.4224-3.9564 2.2854v7.4156l3.7331 2.1576 2.6642 1.5342 1.1327.6553 1.3242.7671 2.4409 1.4224 2.4568-1.4224 3.9565-2.2854v-1.2945Z" fill="#0500FF"></path></svg>